<svg width="390" height="50" viewBox="0 0 390 50" fill="none" xmlns="http://www.w3.org/2000/svg">
<g clip-path="url(#clip0_19502_74780)">
<path fill-rule="evenodd" clip-rule="evenodd" d="M385.951 4.14258H385.926C383.65 4.14258 381.828 5.89953 381.828 8.13843C381.828 10.3773 383.644 12.1587 385.926 12.1587C388.209 12.1587 390 10.3834 390 8.13843C390 5.89343 388.209 4.14258 385.951 4.14258ZM385.951 11.329C384.179 11.329 382.848 9.91369 382.848 8.13843C382.848 6.36317 384.179 4.94785 385.901 4.94785H385.926C387.674 4.94785 388.98 6.38758 388.98 8.16283C388.98 9.93809 387.668 11.3534 385.951 11.329ZM386.847 8.26044V8.21164C387.307 8.06522 387.674 7.748 387.674 7.25995C387.674 6.86952 387.506 6.57669 387.263 6.40588C386.996 6.21066 386.66 6.08865 385.908 6.08865C385.255 6.08865 384.745 6.16186 384.378 6.21066V10.2065H385.298V8.62037H385.734C386.243 8.62037 386.486 8.81559 386.561 9.23043C386.685 9.71847 386.753 10.0601 386.878 10.2065H387.848C387.773 10.0601 387.68 9.84048 387.556 9.23043C387.431 8.69358 387.238 8.37635 386.853 8.25434M385.765 7.96151H385.329V6.81461C385.429 6.79021 385.597 6.76581 385.839 6.76581C386.424 6.76581 386.685 7.00983 386.685 7.37586C386.685 7.7907 386.275 7.96151 385.765 7.96151Z" fill="#D33D5A"/>
<path fill-rule="evenodd" clip-rule="evenodd" d="M69.1343 46.9261C68.556 46.9871 67.0572 46.9993 66.1493 46.9993C64.01 46.9993 62.8906 46.194 62.8906 44.1747V38.3304C62.8906 36.3111 64.01 35.5059 66.1493 35.5059C67.051 35.5059 68.4876 35.5364 69.1343 35.5974C69.2276 35.6096 69.2898 35.7194 69.2898 35.8109V36.5735C69.2898 36.6772 69.2276 36.7565 69.1219 36.7565H66.1679C64.5448 36.7565 64.2899 37.1835 64.2899 38.3365V40.4473H68.9851C69.153 40.4473 69.2898 40.5815 69.2898 40.7523V41.3319C69.2898 41.4966 69.153 41.6369 68.9851 41.6369H64.2899V44.1869C64.2899 45.3399 64.551 45.767 66.1679 45.767H69.1219C69.2276 45.767 69.2898 45.8402 69.2898 45.95V46.7247C69.2898 46.8163 69.2276 46.92 69.1343 46.9383" fill="#D33D5A"/>
<path fill-rule="evenodd" clip-rule="evenodd" d="M80.6948 46.9995H79.9175C79.7433 46.9995 79.6003 46.8592 79.6003 46.6884V37.5132C79.6003 37.4827 79.6003 37.4644 79.5817 37.4644C79.563 37.4644 79.563 37.4644 79.5506 37.4949L77.2869 42.0764C77.1315 42.3875 76.9698 42.5278 76.578 42.5278H75.8504C75.4524 42.5278 75.2969 42.3875 75.1352 42.0764L72.8716 37.4949C72.8591 37.4745 72.8488 37.4644 72.8405 37.4644C72.8405 37.4644 72.8218 37.4827 72.8218 37.5132V46.6884C72.8218 46.8592 72.6788 46.9995 72.5047 46.9995H71.7273C71.5532 46.9995 71.4102 46.8592 71.4102 46.6884V35.9514C71.4102 35.7013 71.6154 35.5 71.8703 35.5H72.8964C73.1825 35.5 73.3069 35.561 73.4002 35.7623L76.0121 41.0698C76.0743 41.2101 76.124 41.2406 76.2049 41.2406C76.2857 41.2406 76.3292 41.2101 76.3976 41.0698L79.0095 35.7623C79.1028 35.561 79.2334 35.5 79.5133 35.5H80.5394C80.7943 35.5 80.9995 35.7013 80.9995 35.9514V46.6884C80.9995 46.8592 80.8565 46.9995 80.6824 46.9995" fill="#D33D5A"/>
<path fill-rule="evenodd" clip-rule="evenodd" d="M87.0575 46.9995C84.5824 46.9995 82.7852 45.6025 82.7852 42.2289V40.2706C82.7852 36.897 84.5824 35.5 87.0575 35.5C89.5326 35.5 91.3111 36.897 91.3111 40.2706V42.2289C91.3111 45.6025 89.5326 46.9995 87.0575 46.9995ZM89.8622 40.2706C89.8622 37.7206 88.7925 36.7445 87.0575 36.7445C85.3224 36.7445 84.2341 37.7145 84.2341 40.2706V42.2289C84.2341 44.7789 85.3224 45.755 87.0575 45.755C88.7925 45.755 89.8622 44.785 89.8622 42.2289V40.2706Z" fill="#D33D5A"/>
<path fill-rule="evenodd" clip-rule="evenodd" d="M99.8925 36.7062H96.8267V46.6867C96.8267 46.8392 96.7147 46.9978 96.5468 46.9978H95.6824C95.5269 46.9978 95.4026 46.8575 95.4026 46.6867V36.7062H92.3367C92.1626 36.7062 92.0195 36.6269 92.0195 36.4561V35.7728C92.0195 35.6203 92.1626 35.4922 92.3367 35.4922H99.8925C100.067 35.4922 100.191 35.602 100.191 35.7728V36.4561C100.191 36.6086 100.067 36.7062 99.8925 36.7062Z" fill="#D33D5A"/>
<path fill-rule="evenodd" clip-rule="evenodd" d="M103.457 46.9995H102.603C102.448 46.9995 102.324 46.8592 102.324 46.6884V35.7928C102.324 35.6403 102.436 35.5 102.603 35.5H103.457C103.612 35.5 103.736 35.622 103.736 35.7928V46.6884C103.736 46.8409 103.625 46.9995 103.457 46.9995Z" fill="#D33D5A"/>
<path fill-rule="evenodd" clip-rule="evenodd" d="M110.141 46.9995C107.666 46.9995 105.869 45.6025 105.869 42.2289V40.2706C105.869 36.897 107.666 35.5 110.141 35.5C112.617 35.5 114.395 36.897 114.395 40.2706V42.2289C114.395 45.6025 112.617 46.9995 110.141 46.9995ZM112.946 40.2706C112.946 37.7206 111.877 36.7445 110.141 36.7445C108.406 36.7445 107.318 37.7145 107.318 40.2706V42.2289C107.318 44.7789 108.406 45.755 110.141 45.755C111.877 45.755 112.946 44.785 112.946 42.2289V40.2706Z" fill="#D33D5A"/>
<path fill-rule="evenodd" clip-rule="evenodd" d="M124.246 46.9995H123.282C123.033 46.9995 122.859 46.908 122.784 46.7494L117.965 37.6657C117.946 37.6352 117.934 37.6169 117.915 37.6169C117.896 37.6169 117.896 37.6352 117.896 37.6657V46.7006C117.896 46.8531 117.772 46.9934 117.617 46.9934H116.808C116.653 46.9934 116.528 46.9629 116.528 46.8104V35.9331C116.528 35.683 116.734 35.5 116.982 35.5H117.84C118.276 35.5 118.357 35.5793 118.481 35.8111L123.27 44.846L123.301 44.8948C123.301 44.8948 123.319 44.8643 123.319 44.846V35.7928C123.319 35.6403 123.444 35.5 123.599 35.5H124.426C124.6 35.5 124.706 35.6403 124.706 35.7928V46.5481C124.706 46.7982 124.501 46.9995 124.252 46.9995" fill="#D33D5A"/>
<path fill-rule="evenodd" clip-rule="evenodd" d="M137.33 46.9241C136.751 46.9851 135.253 46.9973 134.345 46.9973C132.205 46.9973 131.086 46.192 131.086 44.1728V38.3285C131.086 36.3092 132.205 35.5039 134.345 35.5039C135.246 35.5039 136.683 35.5344 137.33 35.5954C137.423 35.6076 137.485 35.7174 137.485 35.8089V36.5715C137.485 36.6752 137.423 36.7545 137.317 36.7545H134.363C132.74 36.7545 132.485 37.1816 132.485 38.3346V40.4453H137.18C137.348 40.4453 137.485 40.5796 137.485 40.7504V41.3299C137.485 41.4946 137.348 41.6349 137.18 41.6349H132.485V44.185C132.485 45.338 132.746 45.765 134.363 45.765H137.317C137.423 45.765 137.485 45.8382 137.485 45.948V46.7228C137.485 46.8143 137.423 46.918 137.33 46.9363" fill="#D33D5A"/>
<path fill-rule="evenodd" clip-rule="evenodd" d="M147.33 46.9995H146.366C146.117 46.9995 145.943 46.908 145.868 46.7494L141.049 37.6657C141.03 37.6352 141.018 37.6169 140.999 37.6169C140.98 37.6169 140.98 37.6352 140.98 37.6657V46.7006C140.98 46.8531 140.856 46.9934 140.701 46.9934H139.892C139.737 46.9934 139.612 46.9629 139.612 46.8104V35.9331C139.612 35.683 139.818 35.5 140.066 35.5H140.924C141.36 35.5 141.441 35.5793 141.565 35.8111L146.353 44.846L146.385 44.8948C146.385 44.8948 146.403 44.8643 146.403 44.846V35.7928C146.403 35.6403 146.528 35.5 146.683 35.5H147.51C147.684 35.5 147.79 35.6403 147.79 35.7928V46.5481C147.79 46.7982 147.585 46.9995 147.336 46.9995" fill="#D33D5A"/>
<path fill-rule="evenodd" clip-rule="evenodd" d="M157.087 46.7738C156.322 46.8958 155.439 46.9995 153.971 46.9995C152.012 46.9995 149.91 45.755 149.91 42.2777V40.2401C149.91 36.5493 152.105 35.5 154.108 35.5C155.563 35.5 156.49 35.622 157.087 35.7135C157.23 35.7257 157.354 35.7867 157.354 35.9392V36.6957C157.354 36.7994 157.292 36.8482 157.149 36.8482H157.087C156.16 36.775 155.439 36.7445 154.108 36.7445C152.653 36.7445 151.334 37.501 151.334 40.2401V42.2777C151.334 44.785 152.51 45.7733 153.965 45.7733C154.923 45.7733 155.563 45.7123 155.936 45.6818V41.3382C155.936 41.1735 156.048 41.0332 156.216 41.0332H157.062C157.217 41.0332 157.36 41.1674 157.36 41.3382V46.4444C157.36 46.6091 157.248 46.7494 157.08 46.7799" fill="#D33D5A"/>
<path fill-rule="evenodd" clip-rule="evenodd" d="M160.988 46.9995H160.133C159.978 46.9995 159.854 46.8592 159.854 46.6884V35.7928C159.854 35.6403 159.966 35.5 160.133 35.5H160.988C161.142 35.5 161.266 35.622 161.266 35.7928V46.6884C161.266 46.8409 161.155 46.9995 160.988 46.9995Z" fill="#D33D5A"/>
<path fill-rule="evenodd" clip-rule="evenodd" d="M171.477 46.9995H170.513C170.265 46.9995 170.091 46.908 170.016 46.7494L165.196 37.6657C165.178 37.6352 165.165 37.6169 165.147 37.6169C165.128 37.6169 165.128 37.6352 165.128 37.6657V46.7006C165.128 46.8531 165.004 46.9934 164.848 46.9934H164.04C163.884 46.9934 163.76 46.9629 163.76 46.8104V35.9331C163.76 35.683 163.965 35.5 164.214 35.5H165.072C165.507 35.5 165.588 35.5793 165.712 35.8111L170.501 44.846L170.532 44.8948C170.532 44.8948 170.551 44.8643 170.551 44.846V35.7928C170.551 35.6403 170.675 35.5 170.831 35.5H171.658C171.832 35.5 171.938 35.6403 171.938 35.7928V46.5481C171.938 46.7982 171.732 46.9995 171.484 46.9995" fill="#D33D5A"/>
<path fill-rule="evenodd" clip-rule="evenodd" d="M180.657 46.9241C180.078 46.9851 178.58 46.9973 177.672 46.9973C175.532 46.9973 174.413 46.192 174.413 44.1728V38.3285C174.413 36.3092 175.532 35.5039 177.672 35.5039C178.573 35.5039 180.01 35.5344 180.657 35.5954C180.75 35.6076 180.812 35.7174 180.812 35.8089V36.5715C180.812 36.6752 180.75 36.7545 180.644 36.7545H177.69C176.067 36.7545 175.812 37.1816 175.812 38.3346V40.4453H180.508C180.675 40.4453 180.812 40.5796 180.812 40.7504V41.3299C180.812 41.4946 180.675 41.6349 180.508 41.6349H175.812V44.185C175.812 45.338 176.074 45.765 177.69 45.765H180.644C180.75 45.765 180.812 45.8382 180.812 45.948V46.7228C180.812 46.8143 180.75 46.918 180.657 46.9363" fill="#D33D5A"/>
<path fill-rule="evenodd" clip-rule="evenodd" d="M189.182 46.9261C188.604 46.9871 187.105 46.9993 186.197 46.9993C184.058 46.9993 182.938 46.194 182.938 44.1747V38.3304C182.938 36.3111 184.058 35.5059 186.197 35.5059C187.099 35.5059 188.535 35.5364 189.182 35.5974C189.275 35.6096 189.338 35.7194 189.338 35.8109V36.5735C189.338 36.6772 189.275 36.7565 189.17 36.7565H186.216C184.593 36.7565 184.338 37.1835 184.338 38.3365V40.4473H189.033C189.201 40.4473 189.338 40.5815 189.338 40.7523V41.3319C189.338 41.4966 189.201 41.6369 189.033 41.6369H184.338V44.1869C184.338 45.3399 184.599 45.767 186.216 45.767H189.17C189.275 45.767 189.338 45.8402 189.338 45.95V46.7247C189.338 46.8163 189.275 46.92 189.182 46.9383" fill="#D33D5A"/>
<path fill-rule="evenodd" clip-rule="evenodd" d="M199.076 46.9995H198.093C197.907 46.9995 197.814 46.9995 197.695 46.7982L194.941 42.2289H194.543C194.033 42.2289 193.666 42.2106 192.851 42.1801V46.6884C192.851 46.8409 192.745 46.9934 192.571 46.9934H191.738C191.582 46.9934 191.458 46.8531 191.458 46.6884V35.9575C191.458 35.744 191.551 35.6525 191.825 35.622C192.484 35.5427 193.641 35.5 194.53 35.5C196.962 35.5 198.84 36.3114 198.84 38.7943V38.9041C198.84 40.6184 197.826 41.631 196.427 42.0032L199.225 46.664C199.256 46.7128 199.269 46.7555 199.269 46.8043C199.269 46.9141 199.194 47.0056 199.07 47.0056L199.076 46.9995ZM197.459 38.8004C197.459 37.2692 196.458 36.7628 194.536 36.7628C194.057 36.7628 193.212 36.7628 192.845 36.8116V41.0149C193.523 41.0332 194.182 41.0454 194.536 41.0454C196.427 41.0454 197.459 40.5695 197.459 38.9163V38.8065V38.8004Z" fill="#D33D5A"/>
<path fill-rule="evenodd" clip-rule="evenodd" d="M202.541 46.9995H201.687C201.532 46.9995 201.408 46.8592 201.408 46.6884V35.7928C201.408 35.6403 201.52 35.5 201.687 35.5H202.541C202.696 35.5 202.82 35.622 202.82 35.7928V46.6884C202.82 46.8409 202.709 46.9995 202.541 46.9995Z" fill="#D33D5A"/>
<path fill-rule="evenodd" clip-rule="evenodd" d="M213.031 46.9995H212.067C211.818 46.9995 211.644 46.908 211.57 46.7494L206.75 37.6657C206.731 37.6352 206.719 37.6169 206.7 37.6169C206.682 37.6169 206.682 37.6352 206.682 37.6657V46.7006C206.682 46.8531 206.557 46.9934 206.402 46.9934H205.593C205.438 46.9934 205.313 46.9629 205.313 46.8104V35.9331C205.313 35.683 205.519 35.5 205.767 35.5H206.626C207.061 35.5 207.142 35.5793 207.266 35.8111L212.055 44.846L212.086 44.8948C212.086 44.8948 212.104 44.8643 212.104 44.846V35.7928C212.104 35.6403 212.229 35.5 212.384 35.5H213.211C213.385 35.5 213.491 35.6403 213.491 35.7928V46.5481C213.491 46.7982 213.286 46.9995 213.037 46.9995" fill="#D33D5A"/>
<path fill-rule="evenodd" clip-rule="evenodd" d="M222.789 46.7738C222.024 46.8958 221.141 46.9995 219.673 46.9995C217.714 46.9995 215.612 45.755 215.612 42.2777V40.2401C215.612 36.5493 217.808 35.5 219.81 35.5C221.265 35.5 222.192 35.622 222.789 35.7135C222.932 35.7257 223.056 35.7867 223.056 35.9392V36.6957C223.056 36.7994 222.994 36.8482 222.851 36.8482H222.789C221.862 36.775 221.141 36.7445 219.81 36.7445C218.355 36.7445 217.036 37.501 217.036 40.2401V42.2777C217.036 44.785 218.212 45.7733 219.667 45.7733C220.625 45.7733 221.265 45.7123 221.638 45.6818V41.3382C221.638 41.1735 221.75 41.0332 221.918 41.0332H222.764C222.919 41.0332 223.062 41.1674 223.062 41.3382V46.4444C223.062 46.6091 222.95 46.7494 222.783 46.7799" fill="#D33D5A"/>
<path fill-rule="evenodd" clip-rule="evenodd" d="M238.174 46.8936H237.092C236.949 46.8936 236.905 46.8509 236.843 46.7899L236.059 45.9724C235.288 46.613 234.256 47.0034 232.969 47.0034C231.053 47.0034 229.119 46.2897 229.119 44.2216V44.0996C229.119 42.8368 229.797 42.0803 231.383 41.1103L231.271 40.9883C229.797 39.3472 229.635 38.7128 229.635 38.0417V37.9197C229.635 36.3092 230.91 35.5039 232.931 35.5039C234.673 35.5039 236.059 36.3092 236.059 37.9197V38.0417C236.059 39.0605 235.636 39.756 233.659 41.0493L233.217 41.336L236.059 44.2948C236.482 43.5688 236.669 42.6232 236.669 41.6227V41.4092C236.669 41.2445 236.75 41.1652 236.918 41.1652H237.595C237.77 41.1652 237.863 41.2384 237.863 41.4092V41.6227C237.863 42.9466 237.533 44.1728 236.874 45.1184L238.273 46.5642C238.335 46.6252 238.354 46.6862 238.354 46.7289C238.354 46.8326 238.261 46.8936 238.18 46.8936H238.174ZM232.173 41.94C230.916 42.6964 230.556 43.1723 230.556 44.0996V44.2216C230.556 45.4539 231.688 45.9541 232.956 45.9541C233.964 45.9541 234.729 45.6491 235.294 45.1794L232.166 41.9461L232.173 41.94ZM234.747 37.9136C234.747 36.9131 234.007 36.5166 232.925 36.5166C231.731 36.5166 230.916 36.8643 230.916 37.9136V38.0356C230.916 38.5664 230.997 38.9751 232.253 40.3111L232.409 40.4758L232.944 40.1586C234.467 39.2496 234.747 38.8653 234.747 38.0295V37.9075V37.9136Z" fill="#D33D5A"/>
<path fill-rule="evenodd" clip-rule="evenodd" d="M247.161 46.9973C245.985 46.9973 244.798 46.9241 244.35 46.8448C244.151 46.8143 244.026 46.6923 244.026 46.4666V36.0347C244.026 35.8211 244.151 35.6869 244.35 35.6564C244.798 35.5832 245.985 35.5039 247.161 35.5039C250.015 35.5039 251.837 36.9497 251.837 40.2257V42.2755C251.837 45.5271 250.015 46.9973 247.161 46.9973ZM250.432 40.2257C250.432 37.4744 249.014 36.6874 247.161 36.6874C246.433 36.6874 245.954 36.6996 245.444 36.7301V45.7833C245.936 45.8138 246.433 45.8138 247.161 45.8138C249.014 45.8138 250.432 45.0085 250.432 42.2755V40.2257Z" fill="#D33D5A"/>
<path fill-rule="evenodd" clip-rule="evenodd" d="M260.213 46.9261C259.635 46.9871 258.136 46.9993 257.228 46.9993C255.089 46.9993 253.97 46.194 253.97 44.1747V38.3304C253.97 36.3111 255.089 35.5059 257.228 35.5059C258.13 35.5059 259.567 35.5364 260.213 35.5974C260.307 35.6096 260.369 35.7194 260.369 35.8109V36.5735C260.369 36.6772 260.307 36.7565 260.201 36.7565H257.247C255.624 36.7565 255.363 37.1835 255.363 38.3365V40.4473H260.058C260.226 40.4473 260.363 40.5815 260.363 40.7523V41.3319C260.363 41.4966 260.226 41.6369 260.058 41.6369H255.363V44.1869C255.363 45.3399 255.624 45.767 257.247 45.767H260.201C260.307 45.767 260.369 45.8402 260.369 45.95V46.7247C260.369 46.8163 260.307 46.92 260.213 46.9383" fill="#D33D5A"/>
<path fill-rule="evenodd" clip-rule="evenodd" d="M265.344 47C264.237 47 263.416 46.8963 262.726 46.7865C262.458 46.7438 262.427 46.6828 262.427 46.512V45.9019C262.427 45.7372 262.552 45.6579 262.695 45.6579H262.744C263.472 45.7189 264.623 45.7494 265.35 45.7494C267.247 45.7494 267.751 45.0234 267.751 43.9558C267.751 43.1994 267.29 42.7723 265.854 41.9182L264.324 41.0215C262.869 40.1735 262.147 39.3987 262.147 38.1786C262.147 36.3424 263.522 35.4883 265.922 35.4883C266.855 35.4883 268.068 35.5798 268.671 35.6713C268.826 35.7018 268.938 35.775 268.938 35.9275V36.5803C268.938 36.7328 268.826 36.8243 268.671 36.8243H268.64C267.943 36.7816 266.843 36.7328 265.922 36.7328C264.299 36.7328 263.603 37.0683 263.603 38.1786C263.603 38.8924 264.125 39.3194 265.325 40.0149L266.78 40.8507C268.609 41.8999 269.256 42.7357 269.256 43.9497C269.256 45.4078 268.466 46.9878 265.356 46.9878" fill="#D33D5A"/>
<path fill-rule="evenodd" clip-rule="evenodd" d="M272.155 46.9995H271.3C271.145 46.9995 271.021 46.8592 271.021 46.6884V35.7928C271.021 35.6403 271.133 35.5 271.3 35.5H272.155C272.309 35.5 272.433 35.622 272.433 35.7928V46.6884C272.433 46.8409 272.322 46.9995 272.155 46.9995Z" fill="#D33D5A"/>
<path fill-rule="evenodd" clip-rule="evenodd" d="M282.103 46.7738C281.338 46.8958 280.455 46.9995 278.988 46.9995C277.029 46.9995 274.927 45.755 274.927 42.2777V40.2401C274.927 36.5493 277.122 35.5 279.124 35.5C280.58 35.5 281.506 35.622 282.103 35.7135C282.246 35.7257 282.371 35.7867 282.371 35.9392V36.6957C282.371 36.7994 282.308 36.8482 282.165 36.8482H282.103C281.177 36.775 280.455 36.7445 279.124 36.7445C277.669 36.7445 276.351 37.501 276.351 40.2401V42.2777C276.351 44.785 277.526 45.7733 278.981 45.7733C279.939 45.7733 280.58 45.7123 280.953 45.6818V41.3382C280.953 41.1735 281.065 41.0332 281.233 41.0332H282.078C282.234 41.0332 282.377 41.1674 282.377 41.3382V46.4444C282.377 46.6091 282.265 46.7494 282.097 46.7799" fill="#D33D5A"/>
<path fill-rule="evenodd" clip-rule="evenodd" d="M292.589 46.9995H291.625C291.376 46.9995 291.202 46.908 291.127 46.7494L286.308 37.6657C286.289 37.6352 286.277 37.6169 286.258 37.6169C286.239 37.6169 286.239 37.6352 286.239 37.6657V46.7006C286.239 46.8531 286.115 46.9934 285.959 46.9934H285.151C284.995 46.9934 284.871 46.9629 284.871 46.8104V35.9331C284.871 35.683 285.076 35.5 285.325 35.5H286.183C286.619 35.5 286.699 35.5793 286.824 35.8111L291.612 44.846L291.643 44.8948C291.643 44.8948 291.662 44.8643 291.662 44.846V35.7928C291.662 35.6403 291.786 35.5 291.942 35.5H292.769C292.943 35.5 293.049 35.6403 293.049 35.7928V46.5481C293.049 46.7982 292.844 46.9995 292.595 46.9995" fill="#D33D5A"/>
<path fill-rule="evenodd" clip-rule="evenodd" d="M79.5576 28.1845H75.6273C75.2729 28.1845 75.1423 27.8672 74.9806 27.5561L70.3413 19.1313H69.8874C69.0478 19.1313 67.7605 19.0337 67.0205 19.0032V27.55C67.0205 27.8978 66.7655 28.1784 66.4111 28.1784H63.1897C62.8353 28.1784 62.543 27.8917 62.543 27.55V5.85041C62.543 5.22206 62.9285 4.99634 63.5753 4.90483C65.2482 4.65471 67.5367 4.49609 69.8936 4.49609C74.8562 4.49609 79.172 6.22865 79.172 11.6276V11.9143C79.172 15.2574 77.4619 17.3377 74.8189 18.3504L79.881 27.5622C79.9432 27.6537 79.9432 27.7513 79.9432 27.8123C79.9432 28.032 79.8126 28.1906 79.5576 28.1906V28.1845ZM74.7256 11.6215C74.7256 9.25451 73.1149 8.24792 69.8936 8.24792C69.2157 8.24792 67.6051 8.30893 67.0267 8.37603V15.4771C67.5429 15.5076 69.3463 15.5747 69.8936 15.5747C73.2144 15.5747 74.7256 14.6901 74.7256 11.9143V11.6276V11.6215Z" fill="#D33D5A"/>
<path fill-rule="evenodd" clip-rule="evenodd" d="M89.0039 28.1848C83.9853 28.1848 81.3672 24.8661 81.3672 20.3944V17.8627C81.3672 13.391 83.9853 10.0723 89.0039 10.0723C94.0225 10.0723 96.6406 13.391 96.6406 17.8627V20.3944C96.6406 24.8661 94.0225 28.1848 89.0039 28.1848ZM92.4242 17.8566C92.4242 15.2882 91.2426 13.635 89.0039 13.635C86.7651 13.635 85.5835 15.2943 85.5835 17.8566V20.3883C85.5835 22.9566 86.7651 24.6098 89.0039 24.6098C91.2426 24.6098 92.4242 22.9505 92.4242 20.3883V17.8566Z" fill="#D33D5A"/>
<path fill-rule="evenodd" clip-rule="evenodd" d="M106.758 28.5325C104.712 28.5325 102.318 28.2153 100.34 27.709C99.6062 27.5198 99.4756 27.3307 99.4756 26.8549V4.77703C99.4756 4.4293 99.7617 4.14258 100.116 4.14258H103.058C103.412 4.14258 103.698 4.4293 103.698 4.77703V10.3895C104.88 10.2309 105.999 10.1699 106.764 10.1699C111.907 10.1699 114.401 13.1836 114.401 18.1311V20.5713C114.401 25.5189 111.907 28.5325 106.764 28.5325H106.758ZM110.178 18.1311C110.178 15.5323 109.507 13.5984 106.758 13.5984C105.993 13.5984 104.587 13.696 103.692 13.818V24.8844C104.301 25.0125 105.607 25.104 106.758 25.104C109.507 25.104 110.178 23.1702 110.178 20.5713V18.1311Z" fill="#D33D5A"/>
<path fill-rule="evenodd" clip-rule="evenodd" d="M124.165 28.1848C119.146 28.1848 116.528 24.8661 116.528 20.3944V17.8627C116.528 13.391 119.146 10.0723 124.165 10.0723C129.184 10.0723 131.802 13.391 131.802 17.8627V20.3944C131.802 24.8661 129.184 28.1848 124.165 28.1848ZM127.585 17.8566C127.585 15.2882 126.404 13.635 124.165 13.635C121.926 13.635 120.745 15.2943 120.745 17.8566V20.3883C120.745 22.9566 121.926 24.6098 124.165 24.6098C126.404 24.6098 127.585 22.9505 127.585 20.3883V17.8566Z" fill="#D33D5A"/>
<path fill-rule="evenodd" clip-rule="evenodd" d="M140.433 28.1833C139.183 28.1833 136.49 28.0247 134.699 27.5549C134.313 27.4634 134.089 27.2133 134.089 26.8351V24.9561C134.089 24.706 134.313 24.4559 134.668 24.4559H134.761C136.297 24.645 139.183 24.7975 140.147 24.7975C142.13 24.7975 142.423 24.1386 142.423 23.2968C142.423 22.705 142.037 22.3268 141.011 21.6984L136.62 19.0691C135.053 18.1296 133.928 16.5679 133.928 14.7499C133.928 11.6203 135.949 10.0586 140.016 10.0586C142.609 10.0586 144.083 10.3392 145.719 10.6869C146.104 10.7785 146.297 11.0286 146.297 11.4068V13.2187C146.297 13.5969 146.073 13.8104 145.75 13.8104H145.656C144.761 13.6823 142.199 13.4322 140.37 13.4322C138.834 13.4322 138.157 13.7738 138.157 14.7438C138.157 15.244 138.635 15.5552 139.438 16.0249L143.635 18.5261C146.328 20.1245 146.714 21.6862 146.714 23.2846C146.714 26.0054 144.63 28.165 140.433 28.165" fill="#D33D5A"/>
<path fill-rule="evenodd" clip-rule="evenodd" d="M156.838 28.1848C151.819 28.1848 149.201 24.8661 149.201 20.3944V17.8627C149.201 13.391 151.819 10.0723 156.838 10.0723C161.856 10.0723 164.475 13.391 164.475 17.8627V20.3944C164.475 24.8661 161.856 28.1848 156.838 28.1848ZM160.258 17.8566C160.258 15.2882 159.077 13.635 156.838 13.635C154.599 13.635 153.418 15.2943 153.418 17.8566V20.3883C153.418 22.9566 154.599 24.6098 156.838 24.6098C159.077 24.6098 160.258 22.9505 160.258 20.3883V17.8566Z" fill="#D33D5A"/>
<path fill-rule="evenodd" clip-rule="evenodd" d="M175.563 13.5127H171.135V27.5195C171.135 27.8673 170.855 28.1845 170.507 28.1845H167.615C167.267 28.1845 166.956 27.8673 166.956 27.5195V8.8458C166.956 4.77675 169.375 3.80066 172.267 3.80066C173.144 3.80066 174.655 3.89217 175.625 4.05078C176.098 4.11179 176.191 4.2704 176.191 4.55713V6.41779C176.191 6.76552 176.067 6.95464 175.719 6.95464H172.989C171.546 6.95464 171.135 7.30237 171.135 8.8458V10.3892H175.563C175.911 10.3892 176.191 10.676 176.191 11.0176V12.9088C176.191 13.2565 175.911 13.5066 175.563 13.5066" fill="#D33D5A"/>
<path fill-rule="evenodd" clip-rule="evenodd" d="M188.38 27.9339C187.628 28.062 186.023 28.184 184.705 28.184C181.595 28.184 179.742 27.1225 179.742 23.4866V7.71063C179.742 7.369 180.022 7.14938 180.37 7.08228L183.293 6.58203H183.386C183.666 6.58203 183.921 6.89316 183.921 7.21039V10.279H188.349C188.697 10.279 188.977 10.5596 188.977 10.9073V12.7558C188.977 13.0974 188.697 13.3841 188.349 13.3841H183.921V23.4988C183.921 24.7494 184.487 24.969 185.837 24.969H188.318C188.728 24.969 188.977 25.1277 188.977 25.4388V27.3788C188.977 27.6899 188.791 27.879 188.38 27.94" fill="#D33D5A"/>
<path fill-rule="evenodd" clip-rule="evenodd" d="M213.193 8.48583H207.552V27.5561C207.552 27.9038 207.26 28.1845 206.905 28.1845H203.715C203.361 28.1845 203.068 27.9038 203.068 27.5561V8.48583H197.428C197.074 8.48583 196.781 8.26621 196.781 7.91848V5.43556C196.781 5.08783 197.074 4.83771 197.428 4.83771H213.186C213.541 4.83771 213.833 5.08783 213.833 5.43556V7.91848C213.833 8.26621 213.541 8.48583 213.186 8.48583" fill="#D33D5A"/>
<path fill-rule="evenodd" clip-rule="evenodd" d="M226.339 20.5532H215.923V20.6447C215.923 22.4566 216.688 24.6162 219.76 24.6162C222.092 24.6162 224.299 24.4271 225.637 24.3051H225.73C226.047 24.3051 226.302 24.4637 226.302 24.7748V26.8429C226.302 27.3431 226.209 27.5627 225.63 27.6543C223.553 28.0325 222.309 28.185 219.43 28.185C216.234 28.185 211.7 26.4952 211.7 20.3336V18.0154C211.7 13.135 214.48 10.0664 219.368 10.0664C224.256 10.0664 226.974 13.3546 226.974 18.0154V19.7663C226.974 20.2665 226.781 20.5471 226.333 20.5471L226.339 20.5532ZM222.726 17.4847C222.726 15.0444 221.352 13.6352 219.374 13.6352C217.397 13.6352 215.954 15.0139 215.954 17.4847V17.6128H222.726V17.4847Z" fill="#D33D5A"/>
<path fill-rule="evenodd" clip-rule="evenodd" d="M240.519 27.776C239.785 27.9651 238.348 28.1848 236.395 28.1848C232.241 28.1848 229.113 25.6835 229.113 20.5835V17.6735C229.113 12.5735 232.241 10.0723 236.395 10.0723C238.342 10.0723 239.785 10.2919 240.519 10.481C241.06 10.6091 241.19 10.7921 241.19 11.2924V13.3239C241.19 13.635 240.935 13.7936 240.618 13.7936H240.525C239.25 13.635 238.479 13.574 236.402 13.574C234.903 13.574 233.336 14.4158 233.336 17.6735V20.5835C233.336 23.8351 234.903 24.6831 236.402 24.6831C238.479 24.6831 239.244 24.622 240.525 24.4634H240.618C240.935 24.4634 241.19 24.622 241.19 24.9332V26.9647C241.19 27.4649 241.06 27.654 240.519 27.776Z" fill="#D33D5A"/>
<path fill-rule="evenodd" clip-rule="evenodd" d="M258.298 28.1848H255.325C254.971 28.1848 254.679 27.8676 254.679 27.5198V16.7829C254.679 14.605 253.74 13.6228 251.383 13.6228C250.189 13.6228 249.026 13.7204 248.286 13.9095V27.5259C248.286 27.8737 247.993 28.1909 247.639 28.1909H244.666C244.312 28.1909 244.02 27.8737 244.02 27.5259V4.77703C244.02 4.4293 244.312 4.14258 244.666 4.14258H247.639C247.993 4.14258 248.286 4.4293 248.286 4.77703V10.4627C249.225 10.2736 250.319 10.1455 251.383 10.1455C256.613 10.1455 258.938 12.7992 258.938 16.7768V27.5198C258.938 27.8676 258.646 28.1848 258.292 28.1848" fill="#D33D5A"/>
<path fill-rule="evenodd" clip-rule="evenodd" d="M276.444 28.185H273.409C273.055 28.185 272.794 27.8678 272.794 27.52V16.5391C272.794 14.9834 272.47 13.5559 270.599 13.5559H268.596C266.724 13.5559 266.401 14.9834 266.401 16.5391V27.52C266.401 27.8678 266.14 28.185 265.785 28.185H262.75C262.396 28.185 262.135 27.8678 262.135 27.52V16.5391C262.135 12.7018 264.392 10.0664 268.59 10.0664H270.592C274.79 10.0664 277.047 12.7018 277.047 16.5391V27.52C277.047 27.8678 276.786 28.185 276.432 28.185" fill="#D33D5A"/>
<path fill-rule="evenodd" clip-rule="evenodd" d="M287.178 28.1848C282.159 28.1848 279.541 24.8661 279.541 20.3944V17.8627C279.541 13.391 282.159 10.0723 287.178 10.0723C292.196 10.0723 294.814 13.391 294.814 17.8627V20.3944C294.814 24.8661 292.196 28.1848 287.178 28.1848ZM290.598 17.8566C290.598 15.2882 289.416 13.635 287.178 13.635C284.939 13.635 283.757 15.2943 283.757 17.8566V20.3883C283.757 22.9566 284.939 24.6098 287.178 24.6098C289.416 24.6098 290.598 22.9505 290.598 20.3883V17.8566Z" fill="#D33D5A"/>
<path fill-rule="evenodd" clip-rule="evenodd" d="M301.308 28.1848H298.304C297.949 28.1848 297.657 27.8676 297.657 27.5198V4.77703C297.657 4.4293 297.949 4.14258 298.304 4.14258H301.308C301.662 4.14258 301.923 4.4293 301.923 4.77703V27.5198C301.923 27.8676 301.662 28.1848 301.308 28.1848Z" fill="#D33D5A"/>
<path fill-rule="evenodd" clip-rule="evenodd" d="M312.75 28.1848C307.731 28.1848 305.113 24.8661 305.113 20.3944V17.8627C305.113 13.391 307.731 10.0723 312.75 10.0723C317.769 10.0723 320.387 13.391 320.387 17.8627V20.3944C320.387 24.8661 317.769 28.1848 312.75 28.1848ZM316.17 17.8566C316.17 15.2882 314.989 13.635 312.75 13.635C310.511 13.635 309.33 15.2943 309.33 17.8566V20.3883C309.33 22.9566 310.511 24.6098 312.75 24.6098C314.989 24.6098 316.17 22.9505 316.17 20.3883V17.8566Z" fill="#D33D5A"/>
<path fill-rule="evenodd" clip-rule="evenodd" d="M330.25 34.4558C327.569 34.4558 325.461 34.0776 324.279 33.6993C323.832 33.5712 323.639 33.3821 323.639 32.9429V31.2652C323.639 30.948 323.894 30.7284 324.248 30.7284H324.311C325.747 30.8565 328.782 31.1066 330.25 31.1066C332.837 31.1066 333.222 30.4722 333.222 28.2943V28.0441C332.55 28.1723 330.921 28.3919 330.156 28.3919C325.013 28.3919 322.52 25.3843 322.52 20.4551V18.021C322.52 13.0856 325.013 10.0842 330.156 10.0842C332.202 10.0842 334.596 10.4014 336.574 10.9077C337.308 11.0969 337.438 11.286 337.438 11.7618V28.0869C337.438 32.5768 335.137 34.4741 330.25 34.4741V34.4558ZM333.222 13.7689C332.613 13.6408 331.307 13.4822 330.156 13.4822C327.408 13.4822 326.736 15.4099 326.736 18.0027V20.4368C326.736 23.0295 327.408 24.9573 330.156 24.9573C330.921 24.9573 332.327 24.8292 333.222 24.7072V13.7689Z" fill="#D33D5A"/>
<path fill-rule="evenodd" clip-rule="evenodd" d="M344.633 8.15673H341.636C341.294 8.15673 340.989 7.87611 340.989 7.52838V4.77093C340.989 4.4232 341.3 4.14258 341.636 4.14258H344.633C344.976 4.14258 345.249 4.4232 345.249 4.77093V7.52838C345.249 7.87611 344.969 8.15673 344.633 8.15673ZM344.54 28.1848H341.698C341.356 28.1848 341.083 27.8737 341.083 27.5259V11.1338C341.083 10.7861 341.362 10.5054 341.698 10.5054H344.54C344.882 10.5054 345.156 10.7861 345.156 11.1338V27.5259C345.156 27.8737 344.876 28.1848 344.54 28.1848Z" fill="#D33D5A"/>
<path fill-rule="evenodd" clip-rule="evenodd" d="M362.724 20.5532H352.308V20.6447C352.308 22.4566 353.072 24.6162 356.145 24.6162C358.477 24.6162 360.684 24.4271 362.021 24.3051H362.115C362.432 24.3051 362.687 24.4637 362.687 24.7748V26.8429C362.687 27.3431 362.593 27.5627 362.015 27.6543C359.938 28.0325 358.694 28.185 355.815 28.185C352.618 28.185 348.085 26.4952 348.085 20.3336V18.0154C348.085 13.135 350.865 10.0664 355.753 10.0664C360.641 10.0664 363.358 13.3546 363.358 18.0154V19.7663C363.358 20.2665 363.166 20.5471 362.718 20.5471L362.724 20.5532ZM359.111 17.4847C359.111 15.0444 357.737 13.6352 355.759 13.6352C353.781 13.6352 352.339 15.0139 352.339 17.4847V17.6128H359.111V17.4847Z" fill="#D33D5A"/>
<path fill-rule="evenodd" clip-rule="evenodd" d="M371.996 28.1833C370.746 28.1833 368.053 28.0247 366.262 27.5549C365.877 27.4634 365.653 27.2133 365.653 26.8351V24.9561C365.653 24.706 365.877 24.4559 366.231 24.4559H366.325C367.861 24.645 370.746 24.7975 371.71 24.7975C373.694 24.7975 373.986 24.1386 373.986 23.2968C373.986 22.705 373.601 22.3268 372.574 21.6984L368.184 19.0691C366.611 18.1296 365.491 16.5679 365.491 14.7499C365.491 11.6203 367.512 10.0586 371.579 10.0586C374.173 10.0586 375.647 10.3392 377.282 10.6869C377.668 10.7785 377.86 11.0286 377.86 11.4068V13.2187C377.86 13.5969 377.637 13.8104 377.313 13.8104H377.22C376.324 13.6823 373.756 13.4322 371.934 13.4322C370.398 13.4322 369.72 13.7738 369.72 14.7438C369.72 15.244 370.199 15.5552 371.001 16.0249L375.199 18.5261C377.892 20.1245 378.277 21.6862 378.277 23.2846C378.277 26.0054 376.194 28.165 371.996 28.165" fill="#D33D5A"/>
<path fill-rule="evenodd" clip-rule="evenodd" d="M25.4847 0C11.4115 0 0 11.1945 0 25C0 38.8055 11.4115 50 25.4847 50C39.5578 50 50.9693 38.8055 50.9693 25C50.9693 11.1945 39.5578 0 25.4847 0Z" fill="#D33D5A"/>
<path fill-rule="evenodd" clip-rule="evenodd" d="M29.0732 12.4207C26.4613 15.2453 23.7623 21.0042 23.7623 21.0042C23.7623 21.0042 21.3805 15.5747 17.6741 13.2382C13.6008 10.6638 10.3359 14.379 10.3359 14.379C10.3359 14.379 13.3334 11.5544 17.5746 19.9671C22.531 29.7889 24.1479 47.2975 24.1479 47.2975C24.1479 47.2975 27.0397 18.7653 35.4537 12.1218C39.2596 9.11422 42.9349 11.8534 42.9349 11.8534C42.9349 11.8534 35.3915 5.59421 29.0732 12.4207Z" fill="white"/>
</g>
<defs>
<clipPath id="clip0_19502_74780">
<rect width="390" height="50" fill="white"/>
</clipPath>
</defs>
</svg>
